<svg width="20" height="20" viewBox="0 0 20 20" fill="none" xmlns="http://www.w3.org/2000/svg">
<rect width="20" height="20" fill="url(#paint0_linear_467_47)"/>
<path d="M8.52508 10.6161V9.69809H7.61055V10.6161V11.5307V14.2865C7.59883 14.4414 7.52902 14.5862 7.41509 14.6919C7.30117 14.7975 7.15154 14.8562 6.99618 14.8562C6.84082 14.8562 6.69119 14.7975 6.57727 14.6919C6.46335 14.5862 6.39353 14.4414 6.38181 14.2865V12.145C6.38181 11.9821 6.44654 11.8258 6.56176 11.7106C6.67697 11.5954 6.83324 11.5307 6.99618 11.5307H7.29985V10.6161H6.99443C6.58924 10.6166 6.20081 10.7779 5.91447 11.0646C5.62812 11.3512 5.46728 11.7398 5.46729 12.145V14.2865C5.46729 14.692 5.62836 15.0809 5.91509 15.3676C6.20181 15.6543 6.59069 15.8154 6.99618 15.8154C7.40167 15.8154 7.79055 15.6543 8.07727 15.3676C8.364 15.0809 8.52508 14.692 8.52508 14.2865V11.5307V10.6161Z" fill="white"/>
<path d="M12.7745 4.18459H9.13925C8.7339 4.18505 8.34529 4.34628 8.05867 4.6329C7.77204 4.91953 7.61082 5.30814 7.61035 5.71348V6.3296V7.24238V8.15866H8.52488V7.24238V6.3296V5.71348C8.52488 5.55054 8.58961 5.39427 8.70482 5.27906C8.82004 5.16384 8.97631 5.09911 9.13925 5.09911H12.7745C12.9295 5.11083 13.0742 5.18065 13.1799 5.29457C13.2855 5.4085 13.3442 5.55812 13.3442 5.71348C13.3442 5.86884 13.2855 6.01847 13.1799 6.13239C13.0742 6.24632 12.9295 6.31613 12.7745 6.32785H8.83557V7.24062H12.7745C13.18 7.24062 13.5689 7.07954 13.8556 6.79282C14.1424 6.5061 14.3034 6.11721 14.3034 5.71173C14.3034 5.30624 14.1424 4.91736 13.8556 4.63063C13.5689 4.34391 13.18 4.18283 12.7745 4.18283V4.18459Z" fill="white"/>
<path d="M11.2825 8.4711H6.99419C6.83125 8.4711 6.67498 8.40637 6.55977 8.29115C6.44455 8.17594 6.37982 8.01967 6.37982 7.85673C6.37982 7.69379 6.44455 7.53752 6.55977 7.42231C6.67498 7.30709 6.83125 7.24236 6.99419 7.24236H7.29786V6.32959H6.99419C6.5979 6.34302 6.22232 6.50989 5.94673 6.79499C5.67114 7.08008 5.51709 7.46109 5.51709 7.85761C5.51709 8.25413 5.67114 8.63514 5.94673 8.92023C6.22232 9.20532 6.5979 9.37219 6.99419 9.38563H11.2825C11.4374 9.39734 11.5822 9.46716 11.6878 9.58108C11.7934 9.69501 11.8521 9.84463 11.8521 9.99999C11.8521 10.1554 11.7934 10.305 11.6878 10.4189C11.5822 10.5328 11.4374 10.6026 11.2825 10.6144H8.83553V11.5289H11.2825C11.6792 11.5154 12.0552 11.3484 12.3311 11.063C12.6071 10.7775 12.7613 10.3961 12.7613 9.99911C12.7613 9.60213 12.6071 9.22068 12.3311 8.93526C12.0552 8.64984 11.6792 8.48278 11.2825 8.46934V8.4711Z" fill="white"/>
<defs>
<linearGradient id="paint0_linear_467_47" x1="20" y1="1.13249e-06" x2="1" y2="19" gradientUnits="userSpaceOnUse">
<stop stop-color="#BD00FF"/>
<stop offset="1" stop-color="#3866F5"/>
</linearGradient>
</defs>
</svg>
