<svg width="20" height="20" viewBox="0 0 20 20" fill="none" xmlns="http://www.w3.org/2000/svg">
<rect width="20" height="20" fill="#FFD300"/>
<path fill-rule="evenodd" clip-rule="evenodd" d="M18.02 9.68653C17.7034 9.3772 17.3326 9.22163 16.9084 9.22163C16.4963 9.22163 16.1309 9.37928 15.811 9.69357C15.4939 10.0079 15.334 10.367 15.334 10.7709C15.334 11.193 15.4943 11.5616 15.8152 11.8745C16.0979 12.1511 16.4297 12.2979 16.8026 12.3308V11.7044C16.5917 11.6772 16.4005 11.6024 16.2373 11.4468C16.0402 11.261 15.9418 11.0426 15.9418 10.7939C15.9418 10.5326 16.0389 10.3081 16.2334 10.1206C16.4285 9.93198 16.6596 9.8393 16.9296 9.8393C17.1926 9.8393 17.4192 9.93198 17.6095 10.1178C17.8004 10.3022 17.8966 10.5217 17.8966 10.7721C17.8966 11.0258 17.7995 11.249 17.6054 11.4396C17.4384 11.6054 17.2429 11.686 17.028 11.708V12.3367C17.4034 12.3167 17.7387 12.1652 18.0295 11.8688C18.3412 11.5524 18.4965 11.1863 18.4965 10.7709C18.4965 10.3574 18.3379 9.99577 18.02 9.68653Z" fill="black"/>
<path fill-rule="evenodd" clip-rule="evenodd" d="M2.50391 7.65627V12.2607H3.131V8.28569H4.76214C4.92203 8.27487 5.04745 8.14208 5.04745 7.97645H5.05084V7.65627H2.50391Z" fill="black"/>
<path fill-rule="evenodd" clip-rule="evenodd" d="M4.68208 9.61108H4.68419V9.92609H3.35553V9.3046H4.39629C4.55539 9.31615 4.68208 9.44694 4.68208 9.61108Z" fill="black"/>
<path fill-rule="evenodd" clip-rule="evenodd" d="M12.168 12.2607H11.5527V7.65625H12.168V12.2607Z" fill="black"/>
<path fill-rule="evenodd" clip-rule="evenodd" d="M14.2978 9.68076C14.0186 9.37551 13.6878 9.22163 13.3054 9.22163C12.9379 9.22163 12.635 9.34555 12.3951 9.59168V10.0706C12.5871 9.8845 12.8104 9.78833 13.0705 9.78833C13.3437 9.78833 13.5783 9.8845 13.7716 10.0768C13.964 10.2693 14.0612 10.5008 14.0612 10.7709C14.0612 11.0415 13.9662 11.2718 13.7753 11.4668C13.5862 11.6594 13.3608 11.7561 13.0984 11.7561C12.8204 11.7561 12.5871 11.6621 12.3951 11.4796V11.9376C12.4758 12.0203 12.5667 12.0933 12.6688 12.1542C12.8813 12.2807 13.1063 12.3437 13.3413 12.3437C13.7083 12.3437 14.0304 12.1881 14.3058 11.8717C14.5811 11.5575 14.7187 11.1913 14.7187 10.7709C14.7187 10.3497 14.5798 9.98652 14.2978 9.68076Z" fill="black"/>
<path fill-rule="evenodd" clip-rule="evenodd" d="M10.7002 9.89027C10.6136 9.84647 10.5136 9.82428 10.4012 9.82428C9.95031 9.82428 9.72403 10.082 9.72403 10.595V12.2607H9.10206V10.5168C9.10206 10.1315 9.21956 9.81931 9.45621 9.58095C9.69277 9.34147 10.0011 9.2215 10.3836 9.2215C10.5632 9.22282 10.7285 9.24947 10.8786 9.30553L10.7002 9.89027Z" fill="black"/>
<path fill-rule="evenodd" clip-rule="evenodd" d="M5.69911 9.30462H6.32231V10.9717C6.32231 11.4856 6.54732 11.7418 6.99889 11.7418C7.19847 11.7418 7.35689 11.6729 7.47473 11.5357C7.591 11.3988 7.64966 11.2101 7.64966 10.9717V9.30462H8.26515V11.0715C8.26515 11.4418 8.14469 11.747 7.90389 11.9856C7.66266 12.2249 7.35558 12.3438 6.98063 12.3438C6.59857 12.3438 6.28987 12.2249 6.05364 11.9856C5.81742 11.747 5.69911 11.4346 5.69911 11.0494V9.30462Z" fill="black"/>
</svg>
