<svg width="20" height="20" viewBox="0 0 20 20" fill="none" xmlns="http://www.w3.org/2000/svg">
<rect width="20" height="20" fill="#01FFFF"/>
<path d="M13.1627 13.5226C12.0054 13.5226 11.1048 13.0596 10.2315 11.9801L11.029 11.2351C11.6203 12.0073 12.3925 12.443 13.1627 12.443C14.1664 12.443 14.8861 11.9548 14.8861 11.2604C14.8861 10.848 14.6546 10.5154 14.1411 10.1809L11.5444 8.53531C10.7722 8.0471 10.3365 7.40326 10.3365 6.5805C10.3365 5.29477 11.5444 4.26581 13.0869 4.26581C14.2948 4.26581 15.3491 4.83183 16.0181 5.80826L15.2206 6.52797C14.5788 5.73047 13.8844 5.34534 13.1122 5.34534C12.1085 5.34534 11.3888 5.80826 11.3888 6.4774C11.3888 6.94031 11.6203 7.30017 12.1085 7.60945L14.7052 9.25498C15.5027 9.74325 15.9404 10.387 15.9404 11.132C15.9404 12.6998 14.6041 13.5226 13.1627 13.5226ZM6.63106 10.6944C7.68533 10.6944 8.50809 9.92217 8.50809 8.89517C8.50809 7.81565 7.71064 7.09593 6.63106 7.09593C5.55155 7.09593 4.85715 7.84091 4.85715 8.89517C4.85715 9.94939 5.60212 10.6944 6.63106 10.6944ZM6.63106 11.7739C4.93495 11.7739 3.7251 10.5913 3.7251 8.89322C3.7251 7.19512 4.93301 6.0125 6.63106 6.0125C8.32916 6.0125 9.53704 7.19512 9.53704 8.89322C9.53704 10.5913 8.32916 11.7739 6.63106 11.7739ZM10 16.7611C8.81738 16.7611 7.89152 16.2982 6.94035 15.244L7.73785 14.4718C8.20076 15.1409 9.20249 15.6797 10 15.6797C10.7975 15.6797 11.7992 15.1389 12.2621 14.4718L13.0596 15.244C12.1085 16.2982 11.1826 16.7611 10 16.7611Z" fill="black"/>
</svg>
