<svg width="224" height="57" viewBox="0 0 224 57" fill="none" xmlns="http://www.w3.org/2000/svg">
<path d="M159.859 14.3723C148.122 14.3723 138.61 23.8856 138.61 35.6253C138.61 47.3604 148.122 56.8776 159.858 56.8776C171.598 56.8776 181.114 47.3604 181.114 35.6253C181.114 23.8856 171.598 14.3723 159.859 14.3723ZM159.859 45.7915C154.246 45.7915 149.692 41.2395 149.692 35.6253C149.692 30.011 154.246 25.4554 159.859 25.4554C165.474 25.4554 170.028 30.011 170.028 35.6253C170.028 41.2395 165.474 45.7915 159.859 45.7915Z" fill="#222222"/>
<path d="M41.4249 14.8872H33.7308C30.4351 14.8872 28.8737 15.7205 26.9735 17.2275L11.6547 32.1964V15.8142C11.6547 15.2977 11.2303 14.8733 10.7128 14.8733H0.941678C0.424407 14.8733 0 15.2977 0 15.8142V56.0601C0 56.5788 0.424407 57 0.941678 57H10.7128C11.2301 57 11.6547 56.5788 11.6547 56.0601V39.3535L27.4427 54.9775C29.0519 56.2506 30.9709 56.9024 33.5125 56.9024H41.0131C43.4477 56.9024 42.548 55.5009 42.548 55.5009L22.9699 35.9191L42.616 16.2659C42.616 16.2659 43.8597 14.8872 41.4249 14.8872Z" fill="#222222"/>
<path d="M86.7697 14.8872H79.0756C75.7766 14.8872 74.2171 15.7205 72.3168 17.2275L57.2997 31.9005V15.8142C57.2997 15.2977 56.8755 14.8733 56.3582 14.8733H46.5871C46.0682 14.8733 45.6438 15.2977 45.6438 15.8142V56.0601C45.6438 56.5788 46.0682 57 46.5869 57H56.3582C56.8755 57 57.2999 56.5788 57.2999 56.0601V39.6539L72.7844 54.9775C74.3953 56.2504 76.3124 56.9024 78.8556 56.9024H86.3563C88.7895 56.9024 87.8928 55.5009 87.8928 55.5009L68.3116 35.9191L87.9592 16.2659C87.9592 16.2659 89.2043 14.8872 86.7697 14.8872Z" fill="#222222"/>
<path d="M223.907 55.3722L208.388 35.8298L223.457 16.2657C223.457 16.2657 224.702 14.8872 222.268 14.8872H215.958C212.882 14.8872 211.058 15.18 209.546 17.0355L201.988 27.7383L193.842 16.9084C192.327 15.0507 190.574 14.8872 187.461 14.8872H181.21C178.775 14.8872 179.962 16.2659 179.962 16.2659L195.459 35.8298L180.154 55.5007C180.154 55.5007 179.256 56.9023 181.693 56.9023H187.368C189.288 56.9023 192.271 57.0401 194.096 55.2128C194.124 55.1832 198.191 49.2096 201.988 44.2723C205.823 49.1354 209.934 54.9898 209.967 55.0175C211.792 56.8467 214.998 56.9023 216.922 56.9023H222.178C224.613 56.9023 223.907 55.3722 223.907 55.3722Z" fill="#222222"/>
<path d="M113.225 14.9159C109.321 15.2257 105.95 17.0719 103.164 19.7194V0.636348C103.164 0.143107 102.786 -0.119602 102.322 0.0530939L92.353 3.7856C91.8899 3.95748 91.5119 4.50509 91.5119 5.00139V55.9252C91.5121 56.1639 91.607 56.3929 91.7757 56.5618C91.9445 56.7308 92.1733 56.826 92.4121 56.8265H102.265C102.711 56.8265 103.066 56.4919 103.134 56.0677V38.0601C103.131 37.964 103.134 39.1798 103.134 39.0806C103.134 33.3239 106.831 27.1769 113.544 25.2006C119.271 23.5099 124.159 27.6726 124.159 33.4299C124.159 39.1831 119.271 45.347 113.544 46.0471C111.323 46.3165 109.462 46.154 107.952 45.6227V56.7567H113.374C126.049 56.7567 134.827 47.5834 135.103 35.7483C135.4 22.9053 126.322 13.8736 113.225 14.9159Z" fill="#222222"/>
</svg>
