<svg width="127" height="48" viewBox="0 0 127 48" fill="none" xmlns="http://www.w3.org/2000/svg">
<path fill-rule="evenodd" clip-rule="evenodd" d="M5.08761 47.9099H24.7623C27.5609 47.9099 29.8499 45.6202 29.8499 42.8216V42.3972C29.8499 39.5986 27.5609 37.3096 24.7623 37.3096H10.5996V5.0876C10.5996 2.289 8.31065 0 5.51204 0H5.08761C2.289 0 0 2.289 0 5.0876V42.8216C0 45.6202 2.289 47.9099 5.08761 47.9099ZM127.002 24.2569V23.8325C127.002 21.0339 124.712 18.7449 121.914 18.7449H107.752V10.6897H121.914C124.712 10.6897 127.002 8.40074 127.002 5.60214V5.1777C127.002 2.37909 124.712 0.0900959 121.914 0.0900959H102.239C99.4406 0.0900959 97.1516 2.37909 97.1516 5.1777V42.9117C97.1516 45.7103 99.4406 48 102.239 48H121.914C124.712 48 127.002 45.7103 127.002 42.9117V42.4873C127.002 39.6887 124.712 37.3997 121.914 37.3997H107.752V29.3445H121.914C124.712 29.3445 127.002 27.0555 127.002 24.2569ZM89.1654 46.3931L89.1668 46.3909C90.1083 45.4417 90.637 44.1592 90.6379 42.8223V5.0876C90.6379 2.289 88.3489 0 85.5496 0H85.1252C82.3266 0 80.0376 2.289 80.0376 5.0876V27.2378L61.6488 2.57266C60.7704 1.03962 59.1163 0 57.2313 0H56.8069C54.0083 0 51.7186 2.289 51.7186 5.0876V42.8216C51.7186 45.6202 54.0076 47.9099 56.8069 47.9099H57.2313C60.0299 47.9099 62.3189 45.6202 62.3189 42.8216V20.2575L80.8407 45.5554C80.9547 45.7328 81.0793 45.9032 81.2137 46.065L81.2145 46.0665C81.7234 46.7605 82.4195 47.2363 83.1952 47.527C83.7913 47.7734 84.4431 47.9099 85.1252 47.9099H85.5496C86.3787 47.9104 87.1952 47.7063 87.9266 47.3158C88.4348 47.073 88.8635 46.7612 89.1654 46.3931ZM39.0439 47.9099H39.4684C42.267 47.9099 44.556 45.6202 44.556 42.8216V5.0876C44.5553 2.289 42.2663 0 39.4677 0H39.0439C36.2453 0 33.9556 2.289 33.9556 5.0876V42.8216C33.9556 45.6202 36.2453 47.9099 39.0439 47.9099Z" fill="#222222"/>
</svg>
