<svg width="363" height="100" viewBox="0 0 363 100" fill="none" xmlns="http://www.w3.org/2000/svg">
<path d="M67.5708 69.5699C61.141 69.5699 56.138 66.9979 51.2858 61.0006L55.7164 56.8618C59.0015 61.152 63.2914 63.5725 67.5708 63.5725C73.1466 63.5725 77.145 60.8602 77.145 57.0024C77.145 54.7114 75.8592 52.8637 73.0063 51.0051L58.5802 41.863C54.2899 39.1507 51.8694 35.5738 51.8694 31.0029C51.8694 23.8599 58.5802 18.1435 67.1492 18.1435C73.86 18.1435 79.717 21.2881 83.4342 26.7127L79.0036 30.7111C75.4376 26.2805 71.5798 24.1409 67.2898 24.1409C61.7138 24.1409 57.7156 26.7127 57.7156 30.4301C57.7156 33.0018 59.0015 35.001 61.7138 36.7193L76.1401 45.8611C80.5704 48.5737 83.002 52.1503 83.002 56.2891C83.002 64.999 75.5782 69.5699 67.5708 69.5699ZM31.2837 53.8577C37.1407 53.8577 41.7116 49.5677 41.7116 43.8622C41.7116 37.8648 37.2813 33.8664 31.2837 33.8664C25.2864 33.8664 21.4286 38.0052 21.4286 43.8622C21.4286 49.7189 25.5673 53.8577 31.2837 53.8577ZM31.2837 59.8551C21.8608 59.8551 15.1394 53.2849 15.1394 43.8513C15.1394 34.4174 21.85 27.8473 31.2837 27.8473C40.7176 27.8473 47.428 34.4174 47.428 43.8513C47.428 53.2849 40.7176 59.8551 31.2837 59.8551ZM50 87.562C43.4299 87.562 38.2862 84.9903 33.0019 79.1333L37.4325 74.8433C40.0042 78.5605 45.5694 81.5538 50 81.5538C54.4305 81.5538 59.9958 78.5497 62.5675 74.8433L66.998 79.1333C61.7138 84.9903 56.5701 87.562 50 87.562ZM50 99.9891C79.4252 99.9891 100 79.4142 100 49.9893C100 20.5641 79.4252 0 50 0C20.5749 0 0 20.5749 0 49.9999C0 79.4251 20.5749 100 50 100V99.9891Z" fill="#222222"/>
<path d="M349.908 69.9896C357.284 69.9896 362.707 64.8422 362.707 57.5298V48.8485H348.592V55.7044H353.558C355.044 55.7044 356.127 56.7871 355.787 58.2728C355.161 61.0747 352.816 62.7302 350.077 62.7302C346.596 62.7302 344.134 60.1619 344.134 56.5642V43.4253C344.134 39.8276 346.533 37.2592 349.908 37.2592C353.282 37.2592 355.564 39.0316 356.477 43.6588L362.824 41.6636C361.285 34.5211 356.307 30.0106 349.908 30.0106C342.309 30.0106 336.992 35.5506 336.992 43.4359V56.5748C336.992 64.4602 342.309 70 349.908 70V69.9896ZM304.145 69.2466H311.457V53.8154C311.457 51.0136 313.452 50.4405 314.885 52.839L324.829 69.2359H331.059V30.7323H323.747V46.1635C323.747 48.9653 321.752 49.5384 320.319 47.1399L310.374 30.7429H304.145V69.2573V69.2466ZM278.95 62.5074C271.807 62.5074 266.66 57.1374 266.66 49.9947C266.66 42.8522 271.807 37.4821 278.95 37.4821C286.092 37.4821 291.972 42.5126 291.972 49.9947C291.972 57.4767 286.262 62.5074 278.95 62.5074ZM278.95 69.9896C290.72 69.9896 299.114 61.7644 299.114 49.9947C299.114 38.225 290.72 30 278.95 30C267.18 30 258.785 38.225 258.785 49.9947C258.785 61.7644 267.18 69.9896 278.95 69.9896ZM242.728 69.9896C250.273 69.9896 255.527 65.8187 255.527 59.9283C255.527 55.9273 253.808 53.0194 249.923 50.5042L238.727 43.3086C237.188 42.2791 236.498 41.1329 236.498 40.0504C236.498 37.6519 238.674 36.2829 242.494 36.2829C245.753 36.2829 249.297 38.2781 251.632 41.4832L256.312 37.0257C252.938 32.6851 247.631 30 242.431 30C234.885 30 229.631 34.1709 229.631 40.0611C229.631 44.0621 231.351 46.9701 235.235 49.4853L246.432 56.681C247.971 57.7103 248.66 58.8566 248.66 59.939C248.66 62.3375 246.485 63.7065 242.664 63.7065C239.406 63.7065 235.861 61.7113 233.526 58.5063L228.846 62.9638C232.221 67.3045 237.527 69.9896 242.728 69.9896ZM206.559 39.1377C206.559 37.6519 207.355 36.8559 208.841 36.8559H213.808C216.323 36.8559 218.382 38.745 218.382 41.0799C218.382 43.5952 216.493 45.3675 213.808 45.3675H208.841C207.355 45.3675 206.559 44.5715 206.559 43.0857V39.1377ZM199.13 69.2466H206.559V54.2187C206.559 52.7329 207.355 51.9369 208.841 51.9369H208.894C210.146 51.9369 211.006 52.51 211.526 53.7093L218.159 69.2466H226.214L219.358 53.1362C218.785 51.8202 219.188 50.8544 220.388 50.0478C223.699 48.0526 225.641 45.5904 225.641 41.0799C225.641 35.9326 221.873 30.7429 214.667 30.7429H199.13V69.2573V69.2466ZM179.931 69.9896C187.307 69.2997 192.274 64.0992 192.274 56.5005V30.7323H184.845V56.5005C184.845 60.0982 182.33 62.6665 178.785 62.6665C175.24 62.6665 172.725 60.0982 172.725 56.5005V30.7323H165.296V56.5005C165.296 64.0992 170.263 69.2997 177.639 69.9896H179.931ZM140.165 62.5074C133.022 62.5074 127.822 57.1374 127.822 49.9947C127.822 42.8522 133.022 37.4821 140.165 37.4821C147.307 37.4821 153.187 42.5126 153.187 49.9947C153.187 57.4767 147.477 62.5074 140.165 62.5074ZM140.165 69.9896C151.934 69.9896 160.329 61.7644 160.329 49.9947C160.329 38.225 151.934 30 140.165 30C128.395 30 120 38.225 120 49.9947C120 61.7644 128.395 69.9896 140.165 69.9896Z" fill="#222222"/>
</svg>
