<svg width="289" height="100" viewBox="0 0 289 100" fill="none" xmlns="http://www.w3.org/2000/svg">
<path d="M142.042 23.4249H114.881V29.0172H124.869V57.0826H132.054V29.0172H142.042V23.4249Z" fill="#222222"/>
<path fill-rule="evenodd" clip-rule="evenodd" d="M156.17 43.7213H163.777C163.777 43.7213 168.485 54.0867 169.093 57.0828H177.954L171.147 43.2405C175.943 41.9982 177.181 36.2636 177.181 31.9059C177.181 25.0713 169.593 23.2021 163.224 23.4251H148.974V57.0828H156.17V43.7213ZM165.057 29.0167H156.169V37.8667H165.057C168.204 37.8244 170.061 36.2397 170.061 33.2744C170.061 30.3128 168.204 29.059 165.057 29.0167Z" fill="#222222"/>
<path d="M186.869 23.4253H210.935V29.0176H194.069V36.9291H209.581V42.5215H194.069V51.4907H211.438V57.083H186.869V23.4253Z" fill="#222222"/>
<path d="M228.046 34.6984L240.366 57.083H249.216V23.4253H242.485V45.3292L242.396 45.4176L230.142 23.4253H221.227V57.083H227.954V34.7945L228.046 34.6984Z" fill="#222222"/>
<path fill-rule="evenodd" clip-rule="evenodd" d="M271.088 57.083H259.665V23.4253H271.088C281.542 23.3253 288.054 28.5483 288.054 40.2483C288.054 51.9522 281.542 57.1714 271.088 57.083ZM266.868 29.2784H270.592C279.13 29.1822 280.388 34.8899 280.388 40.2476C280.388 45.6168 279.13 51.5899 270.592 51.4861H266.868V29.2784Z" fill="#222222"/>
<path d="M133.883 84.7371H137.36V66.0601H131.725L128.368 78.7794L125.018 66.0601H119.394V84.7371H122.883L122.937 70.0294L126.598 84.7371H130.218L133.883 70.0294V84.7371Z" fill="#222222"/>
<path d="M161.975 66.057H165.729V84.7377H161.975V66.057Z" fill="#222222"/>
<path fill-rule="evenodd" clip-rule="evenodd" d="M240.055 76.9718C240.055 76.9718 240.909 76.7641 241.217 76.6218C242.121 76.2526 242.821 75.5872 243.305 74.7757C243.817 73.941 243.94 72.4949 243.94 71.4487C243.94 70.4641 243.582 69.391 243.098 68.5372C242.54 67.5641 241.771 66.9026 240.786 66.5295C240.317 66.368 239.878 66.268 239.482 66.2103C238.771 66.1103 237.775 66.0603 236.517 66.0603H228.613V84.7372H232.359V77.3757L235.94 77.3334L239.905 84.7372H244.409L240.055 76.9718ZM238.522 73.7255C239.092 73.5371 239.495 73.1909 239.726 72.6832C239.872 72.3563 239.945 71.9755 239.945 71.5371C239.945 71.1217 239.872 70.7448 239.726 70.4178C239.58 70.1025 239.342 69.8409 238.992 69.6294C238.657 69.4255 238.292 69.2986 237.899 69.2678C237.515 69.2332 236.649 69.2255 235.299 69.2255H232.361V73.9563H235.58C236.392 73.9563 237.022 73.9448 237.453 73.914C237.872 73.8948 238.23 73.8332 238.522 73.7255Z" fill="#222222"/>
<path fill-rule="evenodd" clip-rule="evenodd" d="M273.652 65.7497C276.583 65.7497 278.852 66.6728 280.452 68.5382C281.944 70.2767 282.683 72.5767 282.683 75.4267C282.683 78.1497 281.998 80.3728 280.652 82.0728C279.079 84.0536 276.764 85.0536 273.702 85.0536C270.521 85.0536 268.129 83.9997 266.568 81.892C265.291 80.1997 264.656 78.0767 264.656 75.4997C264.656 72.4805 265.437 70.0997 266.998 68.3536C268.556 66.619 270.779 65.7497 273.652 65.7497ZM276.983 80.6139C276.102 81.4101 274.998 81.8139 273.675 81.8139C272.625 81.8139 271.718 81.5601 270.952 81.0563C270.344 80.6601 269.844 80.1293 269.468 79.4716C269.171 78.964 268.964 78.4486 268.821 77.9255C268.629 77.2178 268.529 76.3755 268.529 75.3986C268.529 73.6601 268.864 72.2409 269.514 71.1447C270.387 69.7101 271.775 68.9832 273.675 68.9832C275.694 68.9832 277.121 69.7793 277.971 71.3832C278.525 72.4255 278.81 73.7409 278.81 75.3486C278.81 77.7486 278.202 79.5063 276.983 80.6139Z" fill="#222222"/>
<path d="M198.059 68.9837C201.251 68.9837 201.851 71.076 202.155 72.1952H206.02C205.816 69.4529 203.57 65.6452 198.035 65.6452C193.27 65.6452 189.539 68.9375 189.539 75.426C189.539 81.8375 193.062 85.1567 197.989 85.1567C202.616 85.1567 205.247 82.3491 206.02 78.3221H202.155C201.693 80.5952 200.197 81.8106 198.059 81.8106C194.793 81.8106 193.482 78.8144 193.482 75.476C193.482 70.2298 196.209 68.9837 198.059 68.9837Z" fill="#222222"/>
<path d="M84.9355 14.2289C75.9226 5.42522 63.5952 0 50 0C22.3846 0 0 22.3846 0 50C0 59.6344 2.72456 68.6321 7.44527 76.2648C5.80036 71.5261 6.74291 66.1249 9.1425 59.5545C9.15092 59.5229 9.16278 59.4948 9.17559 59.4645C9.18619 59.4394 9.19743 59.4128 9.20788 59.3814C9.24811 59.2607 9.29582 59.1344 9.34319 59.009C9.36375 58.9546 9.38424 58.9004 9.40404 58.8468C9.44314 58.7441 9.4838 58.643 9.52503 58.5405C9.54867 58.4817 9.57251 58.4225 9.59634 58.3622C9.60397 58.3426 9.61221 58.3224 9.62063 58.3017C9.64194 58.2494 9.66442 58.1943 9.68096 58.1391C10.6156 55.8391 11.781 53.466 13.204 51.0699C13.3887 50.6776 13.581 50.2814 13.7733 49.8891L7.7925 49.9045L9.24634 46.6968C14.1848 45.3429 22.404 42.5814 30.2579 34.9545L30.4925 34.9353H34.6233L29.281 46.4199L37.8694 46.4006L36.2925 49.816L27.7194 49.8429C27.7194 49.8429 24.5425 57.4314 23.1733 63.193C22.1194 69.6276 23.1617 74.4314 28.9156 76.2314C32.4579 77.3353 36.8886 77.0853 41.6617 75.7276C52.7694 72.2545 63.7963 65.0776 72.4886 54.9314C86.7886 38.2699 87.0733 21.216 73.1271 16.8622C64.1733 14.0699 51.5502 17.1737 39.8733 24.1545C54.4348 14.7276 70.4463 10.3122 81.4963 13.7583C82.1971 13.9776 83.4819 14.1089 84.9355 14.2289Z" fill="#222222"/>
<path d="M92.3499 23.407C92.3059 23.4243 92.2611 23.4415 92.2156 23.4583C95.5502 32.5429 91.381 46.1199 79.8617 59.5429C62.5694 79.7199 35.6271 93.5853 19.231 88.4622C18.9497 88.3745 18.4812 88.3314 17.8786 88.3196C26.5666 95.6099 37.7704 100 50 100C77.6154 100 100 77.6154 100 50C100 40.2271 97.1965 31.1093 92.3499 23.407Z" fill="#222222"/>
</svg>
